<svg width="512" height="512" viewBox="0 0 512 512" fill="none" xmlns="http://www.w3.org/2000/svg">
<g clip-path="url(#clip0_407_2)">
<path d="M96 64H180C186.6 64 192 69.4 192 76V100C192 106.6 186.6 112 180 112H96C69.5 112 48 133.5 48 160V352C48 378.5 69.5 400 96 400H180C186.6 400 192 405.4 192 412V436C192 442.6 186.6 448 180 448H96C43 448 0 405 0 352V160C0 107 43 64 96 64ZM327.1 83.5L307.5 103.1C302.7 107.9 302.8 115.6 307.7 120.2L420.8 230H172C165.4 230 160 235.4 160 242V270C160 276.6 165.4 282 172 282H420.8L307.7 391.7C302.9 396.4 302.8 404.1 307.5 408.8L327.1 428.4C331.8 433.1 339.4 433.1 344.1 428.4L508.5 264.4C513.2 259.7 513.2 252.1 508.5 247.4L344.1 83.4C339.4 78.8 331.8 78.8 327.1 83.5V83.5Z" fill="white"/>
</g>
<defs>
<clipPath id="clip0_407_2">
<rect width="512" height="512" fill="white"/>
</clipPath>
</defs>
</svg>
