<svg width="36" height="36" viewBox="0 0 36 36" fill="none" xmlns="http://www.w3.org/2000/svg">
<g mask="url(#mask0_1303_8181)">
<path fill-rule="evenodd" clip-rule="evenodd" d="M31.7876 14.7375C31.1369 12.3677 29.8002 10.1384 27.7775 8.04944L21.6948 1.76724C20.7496 0.79113 19.2173 0.791128 18.2722 1.76724L1.71128 18.8711C0.766161 19.8472 0.766161 21.4298 1.71128 22.4059L7.79405 28.6881C9.81669 30.7771 11.9562 32.1773 14.2124 32.8889C16.5056 33.599 18.7879 33.5873 21.0595 32.8538C23.3679 32.1189 25.5447 30.6953 27.5898 28.5831C29.635 26.4709 31.0134 24.2227 31.725 21.8386C32.4543 19.4729 32.4752 17.1058 31.7876 14.7375ZM17.4624 30.0271C14.8456 30.1277 12.3396 28.9411 9.94435 26.4673C9.33043 25.8333 9.33043 24.8053 9.94435 24.1712L16.6885 17.2059L23.4327 10.2406C24.0466 9.60659 25.042 9.60659 25.6559 10.2406C28.0334 12.6961 29.1543 15.2948 29.0187 18.0369C28.9009 20.7973 27.5996 23.4606 25.1148 26.0269C22.6491 28.5734 20.0983 29.9068 17.4624 30.0271ZM12.4199 14.6095C11.8191 13.9891 10.8451 13.9891 10.2443 14.6095L5.63775 19.3671C5.03698 19.9876 5.03698 20.9936 5.63775 21.614C6.23852 22.2345 7.21257 22.2345 7.81334 21.614L12.4199 16.8564C13.0207 16.236 13.0207 15.23 12.4199 14.6095Z" fill="#FF6069"/>
</g>
</svg>
