<svg width="70" height="70" viewBox="0 0 70 70" fill="none" xmlns="http://www.w3.org/2000/svg">
<path d="M18.0193 43.4278C13.3391 20.1921 17.7735 4.94458 17.7735 4.94458C17.7735 4.94458 16.5872 14.2263 25.9124 29.1867C25.7936 47.7331 29.4296 57.4076 29.4296 57.4076L30.1768 56.8556L29.4296 57.5092C29.4296 57.5092 23.9004 52.9774 18.0193 43.4278Z" fill="url(#paint0_linear)"/>
<path d="M40.0617 40.1381C42.2987 42.4014 44.3858 43.9674 45.8943 44.7121C45.8854 44.7076 45.8765 44.7031 45.8676 44.6985C45.8676 44.6985 47.5612 45.3085 47.8601 44.9019C49.9248 42.707 50.4294 38.6169 49.0534 30.9295C41.1826 26.4169 40.1891 19.3821 40.1891 19.3821C40.1891 19.3821 38.7714 29.1486 40.0617 40.1381Z" fill="url(#paint1_linear)"/>
<path d="M17.7733 4.94458C17.7733 4.94458 11.2977 27.2109 22.2564 58.9327C22.5552 59.8477 22.2564 60.8645 21.4594 61.4745L9.90295 69.6083C8.80708 70.4217 7.21309 69.9133 6.71497 68.5916C3.62661 60.1527 -4.84147 32.1928 3.72623 1.58938C4.12473 0.369314 5.41985 -0.342394 6.61534 0.165969L17.7733 4.94458Z" fill="url(#paint2_linear)"/>
<path d="M39.8901 49.6805L29.4295 57.4076C29.4295 57.4076 23.8505 42.5634 26.7396 14.4001C26.9389 12.7734 28.6325 11.96 30.0272 12.7734L40.1889 19.3821C40.1889 19.3821 38.1964 33.1079 41.0855 46.3253C41.3844 47.647 40.8863 48.9688 39.8901 49.6805Z" fill="url(#paint3_linear)"/>
<path d="M59.2171 32.4978L49.5535 26.0925C48.9558 25.6858 48.0592 26.2958 48.2584 27.0075C50.5498 37.2764 50.2509 42.3601 47.8599 44.9019C47.561 45.3086 45.8674 44.6985 45.8674 44.6985C47.4614 45.5119 47.8599 45.1052 47.8599 45.1052C49.4539 43.8851 55.4314 39.5132 59.2171 36.8697C60.7115 35.7513 60.7115 33.5145 59.2171 32.4978Z" fill="url(#paint4_linear)"/>
<defs>
<linearGradient id="paint0_linear" x1="28.8913" y1="18.8094" x2="35.0967" y2="39.5842" gradientUnits="userSpaceOnUse">
<stop stop-color="#131057"/>
<stop offset="1" stop-color="#4F48AD"/>
</linearGradient>
<linearGradient id="paint1_linear" x1="28.8913" y1="18.8094" x2="35.0967" y2="39.5842" gradientUnits="userSpaceOnUse">
<stop stop-color="#131057"/>
<stop offset="1" stop-color="#4F48AD"/>
</linearGradient>
<linearGradient id="paint2_linear" x1="18.283" y1="48.2944" x2="6.18562" y2="20.1682" gradientUnits="userSpaceOnUse">
<stop stop-color="#EE6D93"/>
<stop offset="1" stop-color="#F7C6B8"/>
</linearGradient>
<linearGradient id="paint3_linear" x1="32.6998" y1="56.6983" x2="30.824" y2="12.4476" gradientUnits="userSpaceOnUse">
<stop stop-color="#3CAC96"/>
<stop offset="1" stop-color="#5FCEB8"/>
</linearGradient>
<linearGradient id="paint4_linear" x1="53.4174" y1="22.3712" x2="46.1697" y2="38.4852" gradientUnits="userSpaceOnUse">
<stop stop-color="#80C3FF"/>
<stop offset="0.455382" stop-color="#349BF7"/>
<stop offset="1" stop-color="#714DD6"/>
</linearGradient>
</defs>
</svg>
