<svg width="448" height="512" viewBox="0 0 448 512" fill="none" xmlns="http://www.w3.org/2000/svg">
<path d="M436 160H12C5.373 160 0 154.627 0 148V112C0 85.49 21.49 64 48 64H96V12C96 5.373 101.373 0 108 0H148C154.627 0 160 5.373 160 12V64H288V12C288 5.373 293.373 0 300 0H340C346.627 0 352 5.373 352 12V64H400C426.51 64 448 85.49 448 112V148C448 154.627 442.627 160 436 160ZM12 192H436C442.627 192 448 197.373 448 204V464C448 490.51 426.51 512 400 512H48C21.49 512 0 490.51 0 464V204C0 197.373 5.373 192 12 192ZM345.296 287.947L317.127 259.549C312.46 254.844 304.862 254.813 300.157 259.481L194.12 364.665L148.14 318.313C143.473 313.608 135.874 313.577 131.169 318.245L102.772 346.415C98.067 351.082 98.036 358.68 102.704 363.385L185.305 446.654C189.972 451.359 197.57 451.39 202.275 446.722L345.228 304.917C349.933 300.25 349.964 292.652 345.296 287.947V287.947Z" fill="white"/>
</svg>
