<svg width="640" height="512" viewBox="0 0 640 512" fill="none" xmlns="http://www.w3.org/2000/svg">
<path d="M537.6 226.6C541.7 215.9 544 204.2 544 192C544 139 501 96 448 96C428.3 96 409.9 102 394.7 112.2C367 64.2 315.3 32 256 32C167.6 32 96 103.6 96 192C96 194.7 96.1 197.4 96.2 200.1C40.2 219.8 0 273.2 0 336C0 415.5 64.5 480 144 480H512C582.7 480 640 422.7 640 352C640 290.1 596 238.4 537.6 226.6ZM397.7 319.6L305 412.3C295.6 421.7 280.4 421.7 271.1 412.3L178.4 319.6C169 310.2 169 295 178.4 285.7L189.2 274.9C198.8 265.3 214.4 265.6 223.7 275.4L256.1 309.9V184C256.1 170.7 266.8 160 280.1 160H296.1C309.4 160 320.1 170.7 320.1 184V309.9L352.5 275.4C361.8 265.5 377.4 265.3 387 274.9L397.8 285.7C407 295 407 310.2 397.7 319.6V319.6Z" fill="white"/>
</svg>
