<svg width="448" height="512" viewBox="0 0 448 512" fill="none" xmlns="http://www.w3.org/2000/svg">
<g clip-path="url(#clip0_460_309)">
<path d="M433.941 65.941L382.059 14.059C373.057 5.05724 360.848 6.65676e-05 348.118 0L176 0C149.49 0 128 21.49 128 48V96H48C21.49 96 0 117.49 0 144V464C0 490.51 21.49 512 48 512H272C298.51 512 320 490.51 320 464V416H400C426.51 416 448 394.51 448 368V99.882C448 87.1516 442.943 74.9427 433.941 65.941ZM352 32.491C354.813 33.1852 357.383 34.6359 359.431 36.686L411.313 88.569C413.363 90.617 414.814 93.1867 415.508 96H352V32.491ZM288 464C288 472.822 280.822 480 272 480H48C39.178 480 32 472.822 32 464V144C32 135.178 39.178 128 48 128H128V368C128 394.51 149.49 416 176 416H288V464ZM416 368C416 376.822 408.822 384 400 384H176C167.178 384 160 376.822 160 368V48C160 39.178 167.178 32 176 32H320V104C320 117.2 330.8 128 344 128H416V368Z" fill="white"/>
</g>
<defs>
<clipPath id="clip0_460_309">
<rect width="448" height="512" fill="white"/>
</clipPath>
</defs>
</svg>
